<svg xmlns="http://www.w3.org/2000/svg" viewBox="0 0 74.45 41.57"><defs><style>.cls-1{fill:#fff;}.cls-2{stroke:#000;stroke-miterlimit:10;}</style></defs><title>kert</title><g id="Layer_2" data-name="Layer 2"><g id="Layer_1-2" data-name="Layer 1"><path d="M58,40.46c5.8,0,5.81-9,0-9s-5.8,9,0,9Z"/><path d="M6.62,10.72a11,11,0,0,0-2.14,6h3a12.46,12.46,0,0,1,.67-4.33c.43-1.61-1.95-2.7-2.75-1.16a16.4,16.4,0,0,0-2,7.82c0,1.64,2.7,2.11,2.94.4l.71-5a1.5,1.5,0,0,0-2.89-.8,14.3,14.3,0,0,0-1,5.31h3L6,15.22c-.09-1.37-2.09-2.19-2.8-.76a7.64,7.64,0,0,0-.91,4.36c.11,1.56,2.68,2.18,3,.4l.41-2.76-2.95-.4A28,28,0,0,0,3,22.13l2.9-.8L5.26,18a1.52,1.52,0,0,0-2.75-.36C-.44,22.6,4,30,7.28,33.87c1.09,1.28,3.36-.44,2.36-1.82l-4.4-6c-1.11-1.53-3.65-.14-2.59,1.52A37.39,37.39,0,0,0,15.28,39.69a1.51,1.51,0,0,0,2.2-.89c.79-4.17-.31-7.72-2.12-11.48C14,24.6,12,22,12.63,18.85c.66-3.45,5.46-5.75,8.25-7.76,1.53-1.11.18-3.59-1.52-2.6-3.22,1.89-6.59.59-7.69,4.85a1.51,1.51,0,0,0,2.51,1.45c2.94-3.2,6.26-5.38,10.59-3.18a14.93,14.93,0,0,1,6,5.21L33.16,15c-3-3.55-6.73-7.11-11.77-6.67-5.94.51-9.65,5.52-12.77,10l2.8.76a11.27,11.27,0,0,1,.4-4.65,1.51,1.51,0,0,0-2.75-1.16c-2.31,4-2.76,8.22-3,12.73h3a79.25,79.25,0,0,1,.85-10.55C10.15,14,8,12.69,7.18,14.36a96.87,96.87,0,0,0-4.31,10l2.89.8,1.48-5.91-2.95-.4a24.91,24.91,0,0,0,2.42,9.88L9.3,27.21,5.86,20.44,3.27,22a87.22,87.22,0,0,0,5,8.43l2.36-1.82L6,23.11c-1-1.21-2.83.11-2.5,1.46a18,18,0,0,0,3.17,6.86c.93,1.25,3.33.59,2.74-1.16l-.63-1.88L6.05,29.55a43.5,43.5,0,0,0,4,5,1.52,1.52,0,0,0,2.56-1.06,22.71,22.71,0,0,0-.7-4.71l-2.89.8a20.2,20.2,0,0,0,3.15,6.14A1.51,1.51,0,0,0,15,34.61l-.41-2.49L11.8,33.28l1.59,3.38c.7,1.47,2.68.57,2.8-.76a14.72,14.72,0,0,0-.31-4.59,1.51,1.51,0,0,0-2.89,0L12.6,33h2.89l-3.1-7.64-2.9.79L13,34.48l2.74-1.16-4.46-9.13A1.51,1.51,0,0,0,8.5,25l.16,2.7,2.95-.4a32.5,32.5,0,0,1-1.95-8.16l-2.95.4L7.86,23.6a1.51,1.51,0,0,0,3-.4l.3-4.65h-3l-.23,4.27h3l-.08-3.76-2.94.4,1.19,5.66L11.79,24l-.5-1.45-2.95.4.12.59c.39,1.89,3.28,1.09,2.9-.8l-.12-.59c-.34-1.63-3.17-1.29-3,.4a6.57,6.57,0,0,0,.91,3c.84,1.56,3.08.45,2.74-1.15l-1.19-5.66c-.35-1.66-3-1.28-2.95.4l.08,3.76a1.5,1.5,0,0,0,3,0l.23-4.27c.11-1.93-2.87-1.92-3,0l-.3,4.65,2.94-.4L9.6,18.69c-.43-1.57-3.12-1.33-2.94.4a36.31,36.31,0,0,0,2.05,9c.55,1.48,3.06,1.4,2.95-.4L11.5,25l-2.8.76,4.46,9.13c.73,1.5,3.41.42,2.74-1.16l-3.51-8.33c-.74-1.75-3.63-1-2.9.79l3.11,7.65c.51,1.25,2.52,1.59,2.89,0l.39-1.69H13a8.73,8.73,0,0,1,.2,3.8L16,35.14l-1.59-3.37c-.78-1.66-3-.4-2.74,1.15l.41,2.48,2.74-1.15A16.89,16.89,0,0,1,12,28.82a1.5,1.5,0,0,0-2.89.8,12.61,12.61,0,0,1,.59,3.91l2.56-1.06A40,40,0,0,1,8.64,28c-.9-1.32-3.31-.56-2.74,1.15l.63,1.88,2.74-1.16A16.18,16.18,0,0,1,6.4,23.77L3.89,25.23l4.6,5.45c1.1,1.29,3.31-.4,2.36-1.82a85.87,85.87,0,0,1-5-8.42C5,18.72,2.4,20.23,3.27,22l3.44,6.78c.88,1.73,3.4.21,2.59-1.52a20.83,20.83,0,0,1-2-8.36c-.06-1.64-2.52-2.1-2.94-.4L2.87,24.36a1.5,1.5,0,0,0,2.89.8,89.7,89.7,0,0,1,4-9.29L7,14.71a84.64,84.64,0,0,0-1,11.35c0,1.94,2.9,1.92,3,0,.21-4,.55-7.7,2.59-11.21L8.92,13.69a19.14,19.14,0,0,0-.5,5.45,1.51,1.51,0,0,0,2.79.75c2.34-3.39,5.18-7.69,9.58-8.47S28.44,14.08,31,17.13c1.11,1.3,3.25-.39,2.36-1.82a18.5,18.5,0,0,0-9.94-7.56c-4.79-1.44-8.34,1.59-11.4,4.92l2.51,1.46c.37-1.43,5-2.25,6.31-3l-1.52-2.6C15.92,11,9.48,13.85,9.1,18.71,8.55,25.7,16,30.6,14.59,38l2.2-.9A34,34,0,0,1,5.24,26L2.65,27.53l4.4,6L9.4,31.75c-2.15-2.52-6.33-9.19-4.3-12.63l-2.74-.35L3,22.13c.37,1.91,3.18,1.07,2.9-.8a17.27,17.27,0,0,1-.21-5.27C5.8,14.4,3,14,2.75,15.66l-.41,2.76,3,.4L5.79,16,3,15.22,3.23,19a1.5,1.5,0,0,0,3,0,8.71,8.71,0,0,1,.86-4.51l-2.89-.8-.71,5,3,.4A13.14,13.14,0,0,1,8,12.72L5.25,11.56a22.33,22.33,0,0,0-.77,5.13c-.07,1.95,2.84,1.9,3,0a6.92,6.92,0,0,1,1.73-4.46c1.13-1.57-1.47-3.07-2.59-1.51Z"/><path d="M17.2,31.84c0-.06-.13-.36-.07-.29s0,.34-.33.47q-.3.76-1.11.36l-.54-.54-.1-.61L15,31.4a2.4,2.4,0,0,0-.12.44l-.21.8a1.5,1.5,0,0,0,1.05,1.84,1.52,1.52,0,0,0,1.84-1,12.53,12.53,0,0,0,.47-2,1.84,1.84,0,0,0-1.36-1.92,2,2,0,0,0-2.07.72,2.57,2.57,0,0,0-.29,2.36,1.53,1.53,0,0,0,1.85,1,1.51,1.51,0,0,0,1-1.84Z"/><path d="M11,16.18A10,10,0,0,1,15.16,11L13.34,8.61,7.1,16.38c-1.19,1.47.73,3.53,2.12,2.12L14.57,13a1.51,1.51,0,0,0-1.46-2.5,11.15,11.15,0,0,0-6.95,3.87l2.51,1.46a24.77,24.77,0,0,1,2.72-5.8C12.44,8.42,9.91,7,8.8,8.56a38.58,38.58,0,0,1-4.42,5.19l2.35,1.82,1.76-3.74A1.51,1.51,0,0,0,6.13,10a14.62,14.62,0,0,0-4.78,9.45h3a14.3,14.3,0,0,1,10-12.15,1.51,1.51,0,0,0-.8-2.9,16.23,16.23,0,0,0-7.69,4L8,10.53A19.5,19.5,0,0,1,19.13,5.15a1.5,1.5,0,0,0,0-3c-5.33-.35-8.87,3.08-9.08,8.32a1.51,1.51,0,0,0,2.26,1.3,23.56,23.56,0,0,0,6.2-5.87c1-1.36-1.25-3.1-2.35-1.82L9.63,11.66,12,13.48l4.63-6.34c1-1.42-1.17-3-2.36-1.82l-6,5.76,2.13,2.12A14.67,14.67,0,0,1,17,9.26l-1.46-2.5-3,3c-1.16,1.17.39,3.36,1.82,2.35l6.52-4.57A1.5,1.5,0,0,0,19.34,5l-3,1.47,1.82,2.36,3.24-3.3a1.51,1.51,0,0,0-1.82-2.35L17.36,4.23l1.52,2.59,2-1.54a1.51,1.51,0,0,0-1.16-2.74l-3.95.57,1.46,2.5C21.58,1.46,32,7.68,35.76,10.26c1.59,1.11,3.09-1.49,1.51-2.59C32.05,4,20.86-2,15.14,3.49,14,4.64,15.24,6.19,16.6,6l3.95-.56L19.4,2.69l-2,1.54a1.5,1.5,0,0,0,1.52,2.59l2.21-1.06L19.27,3.4,16,6.7a1.5,1.5,0,0,0,1.82,2.35l3-1.47L19.34,5,12.81,9.56l1.82,2.36,3-3A1.51,1.51,0,0,0,16.2,6.37a17.61,17.61,0,0,0-7.92,4.71,1.5,1.5,0,0,0,2.13,2.12l6-5.76L14,5.62,9.39,12c-1,1.37,1.25,3.1,2.36,1.81L18.28,6.2,15.92,4.39a18.17,18.17,0,0,1-5.13,4.79l2.26,1.29q1.11-6.15,6.08-5.32v-3A22.85,22.85,0,0,0,5.84,8.41C4.42,9.74,6.52,11.8,8,10.53a13.23,13.23,0,0,1,6.37-3.21l-.8-2.9A17.49,17.49,0,0,0,1.35,19.47c-.22,1.93,2.76,1.89,3,0a11.4,11.4,0,0,1,3.91-7.33L5.9,10.32,4.14,14.05c-.69,1.48,1.08,3.09,2.36,1.82a43.64,43.64,0,0,0,4.89-5.8L8.8,8.56a27.34,27.34,0,0,0-3,6.51,1.51,1.51,0,0,0,2.51,1.46,9.66,9.66,0,0,1,5.62-3.1l-1.46-2.51L7.1,16.38,9.22,18.5l6.24-7.77c1-1.22-.28-3.37-1.82-2.35a13.75,13.75,0,0,0-5.55,7c-.67,1.81,2.23,2.59,2.9.79Z"/><path d="M13.48,2.43c-1.94,1.35-4.32,1.84-6.25,3.2S4.48,9.3,3,11.18c-1.17,1.53,1.43,3,2.59,1.51C7,10.9,7.64,8.76,9.72,7.61,11.45,6.66,13.36,6.16,15,5s.08-3.7-1.51-2.59Z"/><path d="M18.79,9.85l7.66-.75c1.54-.16,2.2-2.63.4-2.95-1-.18-3.69-1.21-4.68-.66L19.91,4.2l-.14,2.73c-.09,1.64,2,1.84,2.79.76l1.85-2.48-2.05.54a3,3,0,0,1,1.87,1.87l1.7-2.21L21.8,4V6.92a7.64,7.64,0,0,1,8,1.83l1.07-2.56L26,6.05c-1.42,0-2.13,2.15-.75,2.79a8.32,8.32,0,0,1,3.13,2.47L30.15,9l-4-1.77c-1.43-.64-3.2,1.13-1.82,2.35a30.92,30.92,0,0,0,6,4.23c1.44.78,3.13-1.17,1.81-2.35a8.85,8.85,0,0,1-2.73-4.22L27.63,9l4.76.91-.66-2.51L29.22,9.57a1.51,1.51,0,0,0,1.46,2.51A6.48,6.48,0,0,0,34,9.78L31.52,8.32l-.78,2.36a1.52,1.52,0,0,0,2.2,1.7l3-2L34.12,8.07a17.6,17.6,0,0,0-4.23,5.06A1.51,1.51,0,0,0,32.25,15l4.39-3.83C38.1,9.85,36,7.73,34.52,9l-4.39,3.83,2.35,1.82a15.41,15.41,0,0,1,3.76-4.46c1.31-1.09-.4-3.28-1.82-2.36l-3,2,2.2,1.69.79-2.36c.45-1.36-1.58-2.66-2.51-1.46a3.37,3.37,0,0,1-2,1.53l1.46,2.5,2.51-2.14A1.51,1.51,0,0,0,33.19,7l-4.76-.9A1.52,1.52,0,0,0,26.58,8a12,12,0,0,0,3.51,5.54l1.82-2.36a28.14,28.14,0,0,1-5.43-3.76L24.66,9.77l4,1.77a1.51,1.51,0,0,0,1.82-2.35,10,10,0,0,0-3.74-2.94L26,9.05l4.93.14a1.52,1.52,0,0,0,1.06-2.56A10.66,10.66,0,0,0,21,4a1.51,1.51,0,0,0,0,2.89l4.13,1.39c1.31.44,2.25-1.12,1.69-2.21a6.37,6.37,0,0,0-2.95-2.94,1.54,1.54,0,0,0-2.05.54L20,6.17l2.8.76.14-2.73a1.51,1.51,0,0,0-2.25-1.3,2.66,2.66,0,0,0-1.12,3.67C20.68,8.71,24,8.68,26.05,9l.4-2.94-7.66.75c-1.9.19-1.92,3.19,0,3Z"/><path d="M34.35,15.92,39,9.87,36.43,8.35a23,23,0,0,1-5,4.85l1.81,2.36,4.69-5.38c1.26-1.45-.85-3.58-2.12-2.12l-4.69,5.37c-1,1.2.35,3.41,1.82,2.36A27.72,27.72,0,0,0,39,9.87a1.52,1.52,0,0,0-.54-2.06,1.54,1.54,0,0,0-2,.54l-4.68,6.06a1.52,1.52,0,0,0,.54,2.05,1.55,1.55,0,0,0,2.06-.54Z"/><path d="M33,17.7a55,55,0,0,0,9.5-.95,1.5,1.5,0,0,0,.67-2.5,7.84,7.84,0,0,0-9.36-.7c-1.4.85-.5,3.35,1.16,2.74L41.21,14l-1.15-2.74-4.89,2.91L37,16.51c1.25-1.37,7.43-6.12,4.66-8.61-2.6-2.32-5.25,2.52-5.75,4.36-.36,1.34,1.54,2.7,2.51,1.46l3.22-4.13c1.16-1.48-.71-3.53-2.12-2.12a19.26,19.26,0,0,0-3.89,5.44,1.52,1.52,0,0,0,1.69,2.2,10.87,10.87,0,0,0,7.37-5.25L41.93,8.7c-.66,1.57-3.19,5.5-.62,6.76,2.35,1.16,3.79-2.57,4.62-4L43.34,10c-.78,1.61-4.23,6.53-.84,7.57,3.15,1,5.68-5.88,6.84-7.79L46.6,8.6A8.82,8.82,0,0,1,43.93,13c-1.11,1.19.37,3.38,1.82,2.36A20.67,20.67,0,0,0,51,10.09c.92-1.33-.82-2.67-2-2.05a10,10,0,0,1-4.1,1.15l1.29,2.26a6.74,6.74,0,0,1,2.53-2.58c1.63-1,.13-3.62-1.52-2.59a10.43,10.43,0,0,0-3.6,3.66,1.51,1.51,0,0,0,1.3,2.25,14.48,14.48,0,0,0,5.61-1.56L48.41,8.58a16.28,16.28,0,0,1-4.18,4.22l1.82,2.35c1.61-1.72,3-3.39,3.44-5.75a1.5,1.5,0,0,0-2.74-1.15c-.34.55-3.7,6.32-3.68,6.33l1,1c-.27-.89,1.42-3.32,1.81-4.12.84-1.72-1.59-3.2-2.59-1.52-.19.33-1.3,2.63-1.67,2.74l1.46.39c.15.14,1.52-3.21,1.69-3.61.67-1.61-1.89-2.57-2.74-1.16a7.93,7.93,0,0,1-5.58,3.88l1.7,2.2a17.24,17.24,0,0,1,3.42-4.83L39.5,7.47,36.28,11.6l2.51,1.46a3.15,3.15,0,0,1,1.79-2.6l-1.3-.74c0,.07-4,4.22-4.42,4.67a1.51,1.51,0,0,0,1.82,2.36l4.89-2.91c1.41-.84.49-3.35-1.15-2.74l-6.27,2.3,1.15,2.74a4.72,4.72,0,0,1,5.72.23l.67-2.51A50,50,0,0,1,33,14.7c-1.93,0-1.94,3,0,3Z"/><path d="M44.41,9.55A11.29,11.29,0,0,0,49,8c1.39-.85.48-3.4-1.15-2.75a45.46,45.46,0,0,0-10.51,5.85c-1.53,1.14,0,3.74,1.51,2.59a42.64,42.64,0,0,1,9.79-5.54L47.52,5.42a7.73,7.73,0,0,1-3.11,1.13c-1.89.23-1.91,3.23,0,3Z"/><path d="M67.69,32.76c-.39-3.82-2.5-8.2-7.18-6.46a8.68,8.68,0,0,0-4.77,6C55,36.45,58.67,39,62.35,37.42c2.29-1,3.72-.66,5.78-2.52,3.74-3.35-1.35-10.19-5.45-7.06L59.19,30.5l5.45,7.07c3.77-3.48,7-7.49,6.39-12.91-.45-4.36-5.82-6.22-8.39-2.27q-2.55,3.93-5.34,7.69L62.38,28l-1.49-.54L58.5,36.15c7.63,1.05,11.41-4.07,13.61-10.75l-8.84-1.2a5.55,5.55,0,0,1-.65,3.37L71.3,30l1.39-6.77L63.85,22l-.08,2.18c-.17,4.95,8.16,6.29,8.84,1.2A21.72,21.72,0,0,0,72,15.63L63.35,18a16.28,16.28,0,0,1,1,5.39h9l-.37-8.13c-.22-4.82-7.83-6.42-8.84-1.2A13.09,13.09,0,0,0,65.22,23c1.9,4.08,8.58,2,8.39-2.27A12.93,12.93,0,0,0,67.18,9.63c-3.11-1.94-6.49.65-6.77,3.88a27.75,27.75,0,0,0,1,10.33c1.41,4.92,8.69,3.88,8.84-1.2.12-4.35,1-10.61-1.38-14.58C66.82,4.57,62.75,3.83,59,3.82l2.28,8.38,1.29-.62c4.42-2.13,1.72-8-2.27-8.39A46.13,46.13,0,0,0,37.39,7l4.54,7.77c3.43-2.33,7.16-5.11,11.53-4.87s7.86,2.94,10.22,6.42c2.68,3.94,10.09,1.61,8.22-3.47-1.6-4.38-5-9.37-10-10.12a4.74,4.74,0,0,0-5.09,2.06c-2.38,3.67.18,8,2.13,11.29L66,10.61a21.16,21.16,0,0,0-9-5.34c-5.55-1.69-7.93,7-2.39,8.68a11.48,11.48,0,0,1,5,3c3.61,3.58,9.68-1,7.07-5.45a14,14,0,0,1-2.13-5L64.1,10l.47-.71-5.09,2.06c1.9.29,3.14,2.19,3.74,3.84l8.23-3.47C67.86,6.46,62.84,2.3,56.37,1.21,49.16,0,43.19,3,37.39,7c-4.9,3.33-.7,10,4.54,7.77A37.11,37.11,0,0,1,60.3,12.19L58,3.81l-1.3.62c-4.15,2-2,8.37,2.27,8.39,2.74,0,2.26.83,2.32,3.32.06,2.17,0,4.33,0,6.5l8.84-1.19a20.7,20.7,0,0,1-.72-7.94L62.64,17.4a3.24,3.24,0,0,1,2,3.3L73,18.43l-.21-1.95-8.84-1.2.37,8.13c.26,5.76,9,5.83,9,0A24.45,24.45,0,0,0,72,15.63c-1.86-5.43-10.38-3.2-8.68,2.39a11.29,11.29,0,0,1,.58,5l8.84,1.2L72.85,22c.18-5-7.8-6.21-8.84-1.19l-1.39,6.76c-1.19,5.74,6.63,7.78,8.68,2.4a12.88,12.88,0,0,0,1-5.77A4.52,4.52,0,0,0,63.43,23c-.26.8-1.23,4.65-2.54,4.47-5.64-.77-8,6.67-2.39,8.68l1.49.54c2,.73,3.95-.54,5.08-2.07,1.87-2.51,3.64-5.06,5.34-7.69L62,24.66c.31,3-1.73,4.68-3.75,6.54-3.68,3.39,1.34,10.21,5.45,7.07l3.49-2.66-5.45-7.07c-.16.15-3.31.83-4,1.11l6.61,5.08s.47-.6.1-.43l-3.47.45.33.08-2.69-2.07h0c.57,5.71,9.57,5.77,9,0Z"/><path d="M58.85,41.4c12-4.55,19.49-18,13.46-30.25A20,20,0,0,0,57.32.27a22,22,0,0,0-9.78,1.09A37.06,37.06,0,0,0,43.2,3.1c-1.54.7-4.29,3-6,2.94s-4.48-2.36-6-3c-1.15-.53-2.34-1-3.53-1.47A22.56,22.56,0,0,0,17.11.17,19.93,19.93,0,0,0,2.12,11c-6,12.3,1.4,25.69,13.46,30.25,1.81.69,2.59-2.21.8-2.89C4.54,33.92-1.83,18.74,7.45,8.51c4.41-4.86,10.77-6.37,17-4.85a37.2,37.2,0,0,1,8.35,3.47C34.26,7.88,35.56,9,37.22,9c1.45.07,2.31-.69,3.63-1.39A40.3,40.3,0,0,1,49.14,4c6.25-1.73,12.65-.63,17.33,4.07,10,10.06,3.65,25.88-8.42,30.45-1.79.67-1,3.57.8,2.89Z"/><circle class="cls-1" cx="52.79" cy="20.77" r="10.86"/><rect class="cls-1" x="16.09" y="16.18" width="42.64" height="25.38"/><circle class="cls-1" cx="21.39" cy="20.77" r="10.86"/><path d="M37.12,37.16a32,32,0,0,0-4.18-3l-.74-.5a7.08,7.08,0,0,1,9.73-.1"/><path d="M37.55,36.74a62,62,0,0,0-5-3.63l.12.94a6.55,6.55,0,0,1,8.89-.11c.57.52,1.42-.33.84-.85a7.77,7.77,0,0,0-10.58.11.62.62,0,0,0,.12.94,56.17,56.17,0,0,1,4.81,3.45c.59.49,1.44-.36.85-.85Z"/><circle cx="46.55" cy="30.71" r="1.27"/><path class="cls-2" d="M37.07,37.23c1.65-1.16,2.88-2.1,4.86-3.71"/><circle cx="27.27" cy="30.71" r="1.27"/></g></g></svg>